#!OML:ASF G:\JayActor3\Patient Classification 1\Patient 1\Session 6\male.ASF
:FULLY-SPECIFIED
:DEGREES
1427
root -1.45688 16.2843 -21.9019 174.742 -34.8721 -174.178
lowerback -0.282561 0.144922 2.11946
upperback 2.74132 0.0727306 0.836069
thorax 2.97577 0.0521242 -0.327746
lowerneck -6.78336 -2.03261 -0.281512
upperneck 10.3422 -3.15854 2.761
head 4.72007 -1.47856 0.788633
rclavicle 1.60022e-014 -1.78906e-014
rhumerus -40.6397 44.3996 -95.4197
rradius 111.96
rwrist -33.4759
rhand -29.8328 -13.02
rfingers 7.12502
rthumb -3.15604 -42.9764
lclavicle 1.60022e-014 -1.78906e-014
lhumerus -32.1237 9.16884 82.5907
lradius 24.6765
lwrist 15.7335
lhand -16.907 11.0603
lfingers 7.12502
lthumb 9.32512 40.834
rfemur -13.8366 7.93381 18.7305
rtibia 35.7798
rfoot -19.5848 -11.1311
rtoes -0.688962
lfemur -1.45112 10.4738 -18.0385
ltibia 25.9425
lfoot -23.4346 16.4311
ltoes -2.64418
1428
root -1.45578 16.2845 -21.9033 174.756 -34.8476 -174.185
lowerback -0.293424 0.151013 2.10232
upperback 2.73768 0.0812706 0.834606
thorax 2.97825 0.0561055 -0.319395
lowerneck -6.77634 -2.03276 -0.277946
upperneck 10.3545 -3.15977 2.75812
head 4.72304 -1.47937 0.786974
rclavicle -8.45332e-014 1.07344e-014
rhumerus -40.6482 44.4054 -95.4366
rradius 111.961
rwrist -33.489
rhand -29.8187 -12.9487
rfingers 7.12502
rthumb -3.14238 -42.9053
lclavicle -8.45332e-014 1.07344e-014
lhumerus -32.127 9.17023 82.575
lradius 24.6658
lwrist 15.7272
lhand -16.9115 11.0774
lfingers 7.12502
lthumb 9.32078 40.8513
rfemur -13.8504 7.9529 18.7325
rtibia 35.7834
rfoot -19.5853 -11.126
rtoes -0.671431
lfemur -1.4509 10.4762 -18.0403
ltibia 25.9337
lfoot -23.4364 16.4545
ltoes -2.65436
1429
root -1.45421 16.2847 -21.9053 174.775 -34.8029 -174.201
lowerback -0.308202 0.164352 2.06972
upperback 2.73472 0.0996713 0.834229
thorax 2.98377 0.0646535 -0.30097
lowerneck -6.76644 -2.03284 -0.276914
upperneck 10.3638 -3.16046 2.75549
head 4.72434 -1.48002 0.785919
rclavicle 3.29983e-014 1.07344e-014
rhumerus -40.6584 44.4151 -95.4526
rradius 111.963
rwrist -33.5008
rhand -29.8046 -12.8644
rfingers 7.12502
rthumb -3.12872 -42.8212
lclavicle 3.29983e-014 1.07344e-014
lhumerus -32.1299 9.17229 82.5606
lradius 24.6586
lwrist 15.7234
lhand -16.9151 11.098
lfingers 7.12502
lthumb 9.31722 40.8721
rfemur -13.8685 7.98893 18.7309
rtibia 35.7909
rfoot -19.5831 -11.123
rtoes -0.674603
lfemur -1.44481 10.5022 -18.0432
ltibia 25.9212
lfoot -23.4398 16.4713
ltoes -2.65763
1430
root -1.45302 16.2846 -21.9073 174.791 -34.7661 -174.216
lowerback -0.324664 0.174702 2.04196
upperback 2.73404 0.113864 0.832903
thorax 2.99252 0.0712423 -0.286334
lowerneck -6.75595 -2.03285 -0.274832
upperneck 10.3701 -3.16075 2.7509
head 4.72438 -1.48052 0.784043
rclavicle -1.8313e-014 6.36111e-015
rhumerus -40.6672 44.4305 -95.4679
rradius 111.964
rwrist -33.514
rhand -29.7977 -12.7652
rfingers 7.12502
rthumb -3.12206 -42.722
lclavicle -1.8313e-014 6.36111e-015
lhumerus -32.1299 9.17388 82.5457
lradius 24.6508
lwrist 15.7174
lhand -16.9127 11.1068
lfingers 7.12502
lthumb 9.31954 40.8808
rfemur -13.8801 8.01563 18.7281
rtibia 35.7982
rfoot -19.5829 -11.1176
rtoes -0.682628
lfemur -1.43409 10.5222 -18.0467
ltibia 25.9075
lfoot -23.4464 16.4846
ltoes -2.65504
1431
root -1.45279 16.2846 -21.9086 174.798 -34.7612 -174.224
lowerback -0.336588 0.174493 2.03398
upperback 2.73414 0.11367 0.829216
thorax 2.99931 0.0711277 -0.285633
lowerneck -6.74573 -2.03299 -0.27118
upperneck 10.3754 -3.16107 2.74447
head 4.72396 -1.48104 0.781253
rclavicle 3.91357e-014 -7.55382e-015
rhumerus -40.6739 44.445 -95.4782
rradius 111.966
rwrist -33.5168
rhand -29.7917 -12.6945
rfingers 7.12502
rthumb -3.11631 -42.6515
lclavicle 3.91357e-014 -7.55382e-015
lhumerus -32.1289 9.17367 82.5327
lradius 24.6445
lwrist 15.71
lhand -16.912 11.1121
lfingers 7.12502
lthumb 9.32022 40.8861
rfemur -13.8803 8.00826 18.7236
rtibia 35.8013
rfoot -19.5831 -11.1065
rtoes -0.691717
lfemur -1.42421 10.5097 -18.0531
ltibia 25.8957
lfoot -23.4529 16.499
ltoes -2.64063
1432
root -1.45352 16.2845 -21.9091 174.793 -34.7894 -174.224
lowerback -0.342808 0.164207 2.04873
upperback 2.73626 0.0996431 0.822511
thorax 3.0048 0.0646596 -0.301165
lowerneck -6.73405 -2.03442 -0.268729
upperneck 10.3771 -3.16294 2.73926
head 4.72207 -1.48233 0.779014
rclavicle -1.31148e-013 6.36111e-015
rhumerus -40.6778 44.4584 -95.4863
rradius 111.967
rwrist -33.5233
rhand -29.7947 -12.6306
rfingers 7.12502
rthumb -3.11923 -42.5875
lclavicle -1.31148e-013 6.36111e-015
lhumerus -32.1246 9.16836 82.5221
lradius 24.6387
lwrist 15.7052
lhand -16.9101 11.106
lfingers 7.12502
lthumb 9.32205 40.8799
rfemur -13.8658 7.96503 18.7182
rtibia 35.799
rfoot -19.5835 -11.0893
rtoes -0.699381
lfemur -1.4143 10.4639 -18.0614
ltibia 25.8878
lfoot -23.4606 16.5125
ltoes -2.61468
1433
root -1.45467 16.2844 -21.9092 174.78 -34.8349 -174.215
lowerback -0.343802 0.149177 2.07938
upperback 2.73861 0.0790722 0.814421
thorax 3.0075 0.0552893 -0.327232
lowerneck -6.71802 -2.03729 -0.26655
upperneck 10.3729 -3.16668 2.73653
head 4.71717 -1.48448 0.777593
rclavicle -4.11236e-014 -7.55382e-015
rhumerus -40.6776 44.4675 -95.4915
rradius 111.967
rwrist -33.5257
rhand -29.8056 -12.5927
rfingers 7.12502
rthumb -3.12971 -42.5494
lclavicle -4.11236e-014 -7.55382e-015
lhumerus -32.1176 9.15651 82.5133
lradius 24.6344
lwrist 15.7023
lhand -16.9055 11.1007
lfingers 7.12502
lthumb 9.32649 40.8744
rfemur -13.8454 7.90449 18.7161
rtibia 35.7941
rfoot -19.5821 -11.0709
rtoes -0.698134
lfemur -1.40612 10.3985 -18.0679
ltibia 25.8827
lfoot -23.4634 16.5314
ltoes -2.60046
